<?xml version="1.0" standalone="no"?><!DOCTYPE svg PUBLIC "-//W3C//DTD SVG 1.1//EN" "http://www.w3.org/Graphics/SVG/1.1/DTD/svg11.dtd"><svg t="1494609753554" class="icon" style="" viewBox="0 0 1024 1024" version="1.1" xmlns="http://www.w3.org/2000/svg" p-id="3852" xmlns:xlink="http://www.w3.org/1999/xlink" width="200" height="200"><defs><style type="text/css"></style></defs><path d="M746.770732 974.04878H320.936585c-59.941463 0-108.643902-49.95122-108.643902-111.141463V253.502439c0-61.190244 48.702439-111.141463 108.643902-111.141463h487.024391c59.941463 0 108.643902 49.95122 108.643902 111.141463v546.965854L746.770732 974.04878z" fill="#E3EFFF" p-id="3853"></path><path d="M792.97561 37.463415h-561.95122c-76.17561 0-137.365854 61.190244-137.365853 136.117073v678.087805c0 74.926829 61.190244 136.117073 137.365853 136.117073h490.770732c3.746341 0 6.243902-1.24878 8.741463-3.746342l194.809756-193.560975c2.497561-2.497561 3.746341-4.995122 3.746342-8.741464V173.580488c0-74.926829-61.190244-136.117073-136.117073-136.117073zM119.882927 850.419512V173.580488c0-61.190244 49.95122-111.141463 112.390244-111.141464h560.702439c62.439024 0 112.390244 49.95122 112.390244 111.141464v580.682927H750.517073c-31.219512 0-56.195122 24.97561-56.195122 54.946341V961.560976H231.02439c-61.190244 0-111.141463-49.95122-111.141463-111.141464z m599.414634 108.643903v-149.853659c0-16.234146 13.736585-29.970732 31.219512-29.970732h152.35122L719.297561 959.063415z" fill="#25232E" p-id="3854"></path><path d="M335.921951 328.429268h353.404878c7.492683 0 12.487805-4.995122 12.487805-12.487805s-4.995122-12.487805-12.487805-12.487804H335.921951c-7.492683 0-12.487805 4.995122-12.487805 12.487804s4.995122 12.487805 12.487805 12.487805zM335.921951 530.731707h353.404878c7.492683 0 12.487805-4.995122 12.487805-12.487805s-4.995122-12.487805-12.487805-12.487804H335.921951c-7.492683 0-12.487805 4.995122-12.487805 12.487804s4.995122 12.487805 12.487805 12.487805zM499.512195 695.570732H335.921951c-7.492683 0-12.487805 4.995122-12.487805 12.487805s4.995122 12.487805 12.487805 12.487804H499.512195c7.492683 0 12.487805-4.995122 12.487805-12.487804s-4.995122-12.487805-12.487805-12.487805z" fill="#25232E" p-id="3855"></path></svg>