<?xml version="1.0" standalone="no"?><!DOCTYPE svg PUBLIC "-//W3C//DTD SVG 1.1//EN" "http://www.w3.org/Graphics/SVG/1.1/DTD/svg11.dtd"><svg t="1494610214875" class="icon" style="" viewBox="0 0 1024 1024" version="1.1" xmlns="http://www.w3.org/2000/svg" p-id="10841" xmlns:xlink="http://www.w3.org/1999/xlink" width="200" height="200"><defs><style type="text/css"></style></defs><path d="M838.572973 268.454054c0-13.837838 11.07027-24.908108 24.908108-24.908108s24.908108 11.07027 24.908108 24.908108v608.864865c0 44.281081-35.978378 77.491892-77.491892 77.491892H188.194595c-44.281081 0-77.491892-35.978378-77.491892-77.491892V149.448649c0-44.281081 35.978378-77.491892 77.491892-77.491892h495.394594c13.837838 0 24.908108 11.07027 24.908108 24.908108s-11.07027 24.908108-24.908108 24.908108H188.194595c-13.837838 0-27.675676 11.07027-27.675676 24.908108v727.87027c0 13.837838 11.07027 24.908108 27.675676 24.908108h622.702702c13.837838 0 27.675676-11.07027 27.675676-24.908108V268.454054zM318.27027 359.783784c-13.837838 0-24.908108-13.837838-24.908108-27.675676s11.07027-24.908108 24.908108-24.908108h154.983784c13.837838 0 24.908108 11.07027 24.908108 24.908108s-11.07027 24.908108-24.908108 24.908108h-154.983784z m0 207.567567c-13.837838 0-24.908108-11.07027-24.908108-24.908108s11.07027-24.908108 24.908108-24.908108h365.318919c13.837838 0 24.908108 11.07027 24.908108 24.908108s-11.07027 24.908108-24.908108 24.908108H318.27027z m332.108108-196.497297c-8.302703 11.07027-24.908108 11.07027-35.978378 2.767568s-11.07027-24.908108-2.767568-35.978379L869.016216 55.351351c8.302703-11.07027 24.908108-11.07027 35.978379-2.767567 11.07027 8.302703 11.07027 24.908108 2.767567 35.978378L650.378378 370.854054z" fill="#d81e06" p-id="10842"></path></svg>