<?xml version="1.0" standalone="no"?><!DOCTYPE svg PUBLIC "-//W3C//DTD SVG 1.1//EN" "http://www.w3.org/Graphics/SVG/1.1/DTD/svg11.dtd"><svg t="1494597831282" class="icon" style="" viewBox="0 0 1024 1024" version="1.1" xmlns="http://www.w3.org/2000/svg" p-id="17066" xmlns:xlink="http://www.w3.org/1999/xlink" width="200" height="200"><defs><style type="text/css"></style></defs><path d="M509.62982 509.607136m-509.607137 0a509.607136 509.607136 0 1 0 1019.214273 0 509.607136 509.607136 0 1 0-1019.214273 0Z" fill="#EEEEEE" p-id="17067"></path><path d="M542.012581 509.607136L772.534697 277.983873a22.921871 22.921871 0 0 0-32.495124-32.337817L509.62982 477.067068l-230.342336-231.39854a22.921871 22.921871 0 1 0-32.495124 32.360289l230.499643 231.578319-230.522115 231.578319a22.966816 22.966816 0 0 0 32.517596 32.405234l230.342336-231.488429 230.38728 231.488429a22.966816 22.966816 0 0 0 32.540069-32.405234L542.012581 509.607136z" fill="#DD0000" p-id="17068"></path><path d="M756.309607 791.568628c-9.146276 0-17.753214-3.550643-24.225272-10.022701l-222.432043-223.488247-222.387098 223.465775c-12.741864 12.809281-35.349121 12.921643-48.338182 0.112362a33.933359 33.933359 0 0 1-10.090118-24.157855c0-9.146276 3.52817-17.753214 9.977756-24.225272l222.611823-223.623081-222.611823-223.645554a33.843469 33.843469 0 0 1-9.977756-24.180327c0.022472-9.146276 3.595588-17.730742 10.090118-24.157855 12.876698-12.876698 35.439011-12.854226 48.31571 0.112362l222.387098 223.398357 222.40957-223.420829c12.876698-12.966588 35.349121-12.98906 48.338182-0.134835 6.472058 6.472058 10.022701 15.034051 10.045173 24.180328 0 9.123804-3.52817 17.730742-9.977756 24.180327l-222.611822 223.690498 222.656767 223.645554a34.247973 34.247973 0 0 1-0.112362 48.338182 33.753579 33.753579 0 0 1-24.067965 9.932811z m-246.679787-265.399316l238.342518 239.488612c4.337178 4.35965 12.135108 4.404595 16.517231 0.044945a11.77555 11.77555 0 0 0 0.067417-16.607121L526.169523 509.607136 764.556986 270.07358a11.708132 11.708132 0 0 0-0.022472-16.562176 11.977801 11.977801 0 0 0-16.539703 0.044945L509.62982 493.000016 271.309774 253.601294a11.932857 11.932857 0 0 0-16.539703-0.022473 11.618243 11.618243 0 0 0-0.044945 16.539703l238.409935 239.511085-238.409935 239.466139a11.68566 11.68566 0 0 0 0 16.562176 12.112636 12.112636 0 0 0 16.584648-0.022472l238.320046-239.46614z" fill="#DD0000" p-id="17069"></path></svg>