<?xml version="1.0" standalone="no"?><!DOCTYPE svg PUBLIC "-//W3C//DTD SVG 1.1//EN" "http://www.w3.org/Graphics/SVG/1.1/DTD/svg11.dtd"><svg t="1494609989895" class="icon" style="" viewBox="0 0 1024 1024" version="1.1" xmlns="http://www.w3.org/2000/svg" p-id="10730" xmlns:xlink="http://www.w3.org/1999/xlink" width="200" height="200"><defs><style type="text/css"></style></defs><path d="M815.104 70.656c16.384-8.192 35.84-13.312 56.32-13.312 64.512 0 116.736 48.128 116.736 107.52 0 24.576-9.216 47.616-24.064 65.536l-148.992-159.744zM988.16 512c0 263.168-212.992 476.16-476.16 476.16s-476.16-212.992-476.16-476.16 212.992-476.16 476.16-476.16c262.656 0 476.16 212.992 476.16 476.16z m-476.16-389.632c-215.552 0-389.632 174.592-389.632 389.632C122.368 727.552 296.96 901.632 512 901.632s389.12-174.592 389.12-389.632c0.512-215.552-174.08-389.632-389.12-389.632z m-37.376 560.128c0 1.024-138.24-119.808-176.128-157.184-46.08-46.08 14.336-92.672 52.736-54.784 32.256 31.744 124.416 111.104 123.392 110.592 0 0 176.128-147.968 206.848-178.176 43.008-42.496 90.112 10.752 54.272 46.08-44.544 44.544-263.68 236.032-261.12 233.472zM35.84 164.864c0-59.392 52.736-107.52 116.736-107.52 20.48 0 39.424 4.608 56.32 13.312l-148.992 159.744c-14.848-17.92-24.064-40.96-24.064-65.536z" fill="#d81e06" p-id="10731"></path></svg>