<?xml version="1.0" standalone="no"?><!DOCTYPE svg PUBLIC "-//W3C//DTD SVG 1.1//EN" "http://www.w3.org/Graphics/SVG/1.1/DTD/svg11.dtd"><svg t="1494606864048" class="icon" style="" viewBox="0 0 1024 1024" version="1.1" xmlns="http://www.w3.org/2000/svg" p-id="3607" xmlns:xlink="http://www.w3.org/1999/xlink" width="200" height="200"><defs><style type="text/css"></style></defs><path d="M921.527805 289.984952C922.434683 265.718201 914.797186 245.3421 898.642053 228.856649 882.472527 212.373296 862.718682 204.361283 839.376408 204.818513 816.032079 205.277841 796.280289 213.749181 780.116931 230.226242L400.308862 617.586094 245.852065 453.773059C229.696933 437.289704 209.945145 428.826754 186.592588 428.359038 163.250314 427.899709 143.49647 435.920111 127.335168 452.397172 111.173866 468.880527 102.868039 488.34007 102.417686 510.77161 101.975558 533.211539 109.822807 552.668983 125.986165 569.154434L337.010604 793.405734C353.171907 809.891185 374.266528 817.911586 400.308862 817.443867 426.3512 816.986638 447.454048 808.521591 463.607125 792.038236L458.225507 797.535485 895.944049 351.111158C912.105349 334.619415 920.635327 314.243314 921.527805 289.984952Z" fill="#0094db" p-id="3608"></path></svg>